<svg viewBox="0 0 16 16" xmlns="http://www.w3.org/2000/svg">
  <path d="M.05 8.356A1.08 1.08 0 0 1 0 8.012c0-.13.022-.25.066-.36a.253.253 0 0 1 .057-.204c.05-.06.097-.112.14-.156L7.276.32c.22-.218.458-.324.716-.319.258.006.49.112.7.32.208.207.315.439.32.695.006.256-.101.494-.32.712L3.357 7.03h11.654a.96.96 0 0 1 .708.279c.187.185.28.42.28.703a.958.958 0 0 1-.066.36 1 1 0 0 1-.23.328.939.939 0 0 1-.313.213c-.11.043-.236.07-.379.082l-11.67-.017 5.35 5.32c.208.207.312.436.312.687 0 .251-.104.48-.313.688-.22.218-.455.327-.707.327-.253 0-.483-.104-.692-.311L.263 8.699a2.336 2.336 0 0 1-.131-.146.307.307 0 0 1-.083-.197Z" fill="currentColor" fill-rule="evenodd"/>
</svg>
