<svg viewBox="0 0 16 16" xmlns="http://www.w3.org/2000/svg">
  <path d="m6.998 0 .108.005a.67.67 0 0 1 .586.661v.667h4.685a.67.67 0 0 1 .67.667v1.333h-1.34v-.667H7.693v10.667h4.016v-.667h1.338V14a.665.665 0 0 1-.67.666H7.693v.667a.665.665 0 0 1-.586.662.672.672 0 0 1-.318-.037l-5.354-2A.67.67 0 0 1 1 13.333V2.666a.664.664 0 0 1 .434-.624l5.354-2A.671.671 0 0 1 6.998 0Zm5.852 4.862L16 8l-3.15 3.138-.946-.943 1.534-1.529H9.031V7.333h4.407l-1.534-1.529.946-.942ZM4.314 7.334l-.098.012a.67.67 0 0 0-.526.524.664.664 0 0 0 .656.796.67.67 0 0 0 .67-.666.665.665 0 0 0-.702-.666Z" fill="currentColor" fill-rule="nonzero"/>
</svg>
