<svg viewBox="0 0 16 16" xmlns="http://www.w3.org/2000/svg">
  <path d="m15.756 14.63-3.597-3.6a6.667 6.667 0 0 0 1.05-1.933 6.836 6.836 0 0 0 .393-2.307c0-.938-.181-1.82-.543-2.645a6.664 6.664 0 0 0-1.452-2.157A7.11 7.11 0 0 0 9.443.525 6.686 6.686 0 0 0 6.8 0c-.937 0-1.817.175-2.642.525a7.11 7.11 0 0 0-2.164 1.463A6.664 6.664 0 0 0 .543 4.145 6.508 6.508 0 0 0 0 6.79c0 .95.181 1.838.543 2.664.35.825.834 1.544 1.452 2.157.619.612 1.34 1.1 2.164 1.463.825.35 1.705.525 2.642.525.8 0 1.555-.131 2.267-.394a8.03 8.03 0 0 0 1.967-1.05l3.597 3.601a.841.841 0 0 0 .562.244.84.84 0 0 0 .562-.244.774.774 0 0 0 0-1.125ZM1.611 6.79c0-.713.131-1.388.394-2.026a5.456 5.456 0 0 1 1.114-1.65 4.949 4.949 0 0 1 1.659-1.107A4.963 4.963 0 0 1 6.8 1.594c.724 0 1.399.138 2.023.413.637.263 1.19.631 1.658 1.107.469.475.84 1.025 1.115 1.65.263.638.394 1.313.394 2.026 0 .725-.131 1.4-.394 2.026a5.177 5.177 0 0 1-1.124 1.67A5.233 5.233 0 0 1 8.824 11.6a5.063 5.063 0 0 1-2.023.404 4.963 4.963 0 0 1-2.023-.413 5.269 5.269 0 0 1-1.659-1.116 5.276 5.276 0 0 1-1.114-1.66A5.183 5.183 0 0 1 1.61 6.79Z" fill="currentColor" fill-rule="evenodd"/>
</svg>
