<svg viewBox="0 0 16 16" xmlns="http://www.w3.org/2000/svg">
  <path d="M8 0c1.988 0 3.6 1.653 3.6 3.692h-1.2c0-1.36-1.075-2.461-2.4-2.461S5.6 2.333 5.6 3.692v2.462h6c1.325 0 2.4 1.102 2.4 2.461v4.923C14 14.898 12.925 16 11.6 16H4.4C3.075 16 2 14.898 2 13.538V8.615c0-1.305.99-2.373 2.242-2.456l.157-.006.001-2.46C4.4 1.718 5.91.106 7.809.004L8 0Zm0 9.846c-.663 0-1.2.551-1.2 1.23 0 .68.537 1.232 1.2 1.232.663 0 1.2-.551 1.2-1.231s-.537-1.23-1.2-1.23Z" fill="currentColor" fill-rule="evenodd"/>
</svg>
