<svg viewBox="0 0 24 24" xmlns="http://www.w3.org/2000/svg">
  <g stroke-width="2.54372584" fill="none" fill-rule="evenodd" stroke-linecap="round" stroke-linejoin="round">
    <path d="M17.385 5.077V3.538c0-.85.688-1.538 1.538-1.538h1.538C21.311 2 22 2.689 22 3.538v1.539c0 .85-.689 1.538-1.539 1.538h-1.538c-.85 0-1.538-.688-1.538-1.538ZM17.385 12.77v-1.54c0-.849.688-1.538 1.538-1.538h1.538c.85 0 1.539.689 1.539 1.539v1.538c0 .85-.689 1.539-1.539 1.539h-1.538c-.85 0-1.538-.69-1.538-1.539ZM17.385 20.462v-1.539c0-.85.688-1.538 1.538-1.538h1.538c.85 0 1.539.688 1.539 1.538v1.539c0 .85-.689 1.538-1.539 1.538h-1.538c-.85 0-1.538-.689-1.538-1.538ZM9.692 5.077V3.538c0-.85.69-1.538 1.539-1.538h1.538c.85 0 1.539.689 1.539 1.538v1.539c0 .85-.69 1.538-1.539 1.538h-1.538c-.85 0-1.539-.688-1.539-1.538Z" stroke="currentColor"/>
    <path d="M9.692 12.77v-1.54c0-.849.69-1.538 1.539-1.538h1.538c.85 0 1.539.689 1.539 1.539v1.538c0 .85-.69 1.539-1.539 1.539h-1.538c-.85 0-1.539-.69-1.539-1.539Z" stroke="currentColor" class="stroke-accent"/>
    <path d="M9.692 20.462v-1.539c0-.85.69-1.538 1.539-1.538h1.538c.85 0 1.539.688 1.539 1.538v1.539c0 .85-.69 1.538-1.539 1.538h-1.538c-.85 0-1.539-.689-1.539-1.538ZM2 5.077V3.538C2 2.688 2.689 2 3.538 2h1.539c.85 0 1.538.689 1.538 1.538v1.539c0 .85-.688 1.538-1.538 1.538H3.538C2.688 6.615 2 5.927 2 5.077ZM2 12.77v-1.54c0-.849.689-1.538 1.538-1.538h1.539c.85 0 1.538.689 1.538 1.539v1.538c0 .85-.688 1.539-1.538 1.539H3.538c-.85 0-1.538-.69-1.538-1.539ZM2 20.462v-1.539c0-.85.689-1.538 1.538-1.538h1.539c.85 0 1.538.688 1.538 1.538v1.539c0 .85-.688 1.538-1.538 1.538H3.538C2.688 22 2 21.311 2 20.462Z" stroke="currentColor"/>
  </g>
</svg>
