<svg viewBox="0 0 24 24" xmlns="http://www.w3.org/2000/svg">
  <g stroke-width="2.54372794" fill="none" fill-rule="evenodd" stroke-linecap="round" stroke-linejoin="round">
    <path d="M3.538 4.308A1.538 1.538 0 0 0 2 5.846v14.615A1.539 1.539 0 0 0 3.538 22h16.923A1.539 1.539 0 0 0 22 20.461V5.846a1.539 1.539 0 0 0-1.539-1.538h-3.076M6.615 2v4.615M17.385 2v4.615M6.615 4.308h7.693" stroke="currentColor"/>
    <path d="M6.615 11.615a.385.385 0 1 1 0-.769M6.616 11.615a.385.385 0 1 0 0-.769M12 11.615a.385.385 0 1 1 0-.769M12 11.615a.385.385 0 1 0 0-.769M6.615 17a.385.385 0 1 1 0-.77M6.616 17a.385.385 0 1 0 0-.77M12 17a.385.385 0 1 1 0-.77M12 17a.385.385 0 1 0 0-.77M17.385 11.615a.384.384 0 1 1 0-.769M17.385 11.615a.385.385 0 1 0 0-.769" stroke="currentColor" class="stroke-accent"/>
  </g>
</svg>
