<svg viewBox="0 0 24 24" xmlns="http://www.w3.org/2000/svg">
  <g stroke-width="3.05311011" fill="none" fill-rule="evenodd" stroke-linecap="round" stroke-linejoin="round">
    <path d="M12.003 12.388a.388.388 0 0 1 0-.776M12.003 12.388a.388.388 0 0 0 0-.776M7.734 12.388a.388.388 0 0 1 0-.776M7.734 12.388a.388.388 0 0 0 0-.776M16.272 12.388a.388.388 0 0 1 0-.776M16.272 12.388a.388.388 0 0 0 0-.776" stroke="currentColor" class="stroke-accent"/>
    <path d="M11.997 2a9.995 9.995 0 0 0-8.81 5.278 10.002 10.002 0 0 0 .49 10.26L2 22l5.614-1.015a9.996 9.996 0 0 0 14.14-11.193A10 10 0 0 0 11.996 2Z" stroke="currentColor"/>
  </g>
</svg>
