<svg viewBox="0 0 24 24" xmlns="http://www.w3.org/2000/svg">
  <g fill="none" fill-rule="evenodd">
    <path d="M20.5 20.461c0 .409-.163.8-.453 1.088a1.55 1.55 0 0 1-1.092.451H5.045a1.55 1.55 0 0 1-1.092-.45A1.535 1.535 0 0 1 3.5 20.46V3.538c0-.408.163-.799.453-1.087.29-.289.683-.451 1.092-.451h10.046L20.5 7.385V20.46Z" stroke="currentColor" stroke-width="2.54372556" stroke-linecap="round" stroke-linejoin="round"/>
    <path d="M7.362 14.963c-.053 0-.088-.035-.088-.087V11c0-.053.035-.087.088-.087h1.25c.982 0 1.447.544 1.447 1.33 0 .788-.465 1.326-1.447 1.326h-.419v1.308c0 .052-.035.087-.087.087h-.744Zm.831-2.205h.395c.309 0 .594-.098.594-.515 0-.423-.285-.521-.594-.521h-.395v1.036Zm2.547 2.205c-.052 0-.087-.035-.087-.087V11c0-.053.035-.087.087-.087h1.262c1.355 0 2.081.891 2.081 2.025 0 1.135-.726 2.026-2.081 2.026H10.74Zm.831-.81h.42c.76 0 1.156-.428 1.156-1.216 0-.787-.395-1.215-1.157-1.215h-.419v2.43Zm3.218.81c-.053 0-.088-.035-.088-.087V11c0-.053.035-.087.088-.087h2.075c.053 0 .087.034.087.087v.636c0 .052-.034.087-.087.087H15.62v.764h1.169c.052 0 .087.035.087.087v.636c0 .053-.035.087-.087.087H15.62v1.58c0 .052-.035.087-.087.087h-.744Z" fill="currentColor" class="fill-accent" fill-rule="nonzero"/>
  </g>
</svg>
