<svg viewBox="0 0 24 24" xmlns="http://www.w3.org/2000/svg">
  <g stroke-width="2.29" fill="none" fill-rule="evenodd" stroke-linecap="round" stroke-linejoin="round">
    <path d="M15.5 10.849a1.729 1.729 0 1 0 0-3.458 1.729 1.729 0 0 0 0 3.458ZM14.917 18.885a9.855 9.855 0 0 0-9.908-8.034A10.55 10.55 0 0 0 3 11.04" stroke="currentColor" class="stroke-accent"/>
    <path d="M21.05 14.637a10.591 10.591 0 0 0-3.394-.556 10.715 10.715 0 0 0-4.25.869" stroke="currentColor" class="stroke-accent"/>
    <path d="M4.389 18.885h15.273c.767 0 1.389-.621 1.389-1.388V6.389c0-.767-.622-1.389-1.389-1.389H4.39C3.622 5 3 5.622 3 6.389v11.108c0 .767.622 1.388 1.389 1.388Z" stroke="currentColor"/>
  </g>
</svg>
