<svg viewBox="0 0 24 24" xmlns="http://www.w3.org/2000/svg">
  <g stroke-width="2.54372823" fill="none" fill-rule="evenodd" stroke-linecap="round" stroke-linejoin="round">
    <path d="M3.538 2h16.924A1.538 1.538 0 0 1 22 3.538v15.385A3.077 3.077 0 0 1 18.923 22H5.077A3.077 3.077 0 0 1 2 18.923V3.538A1.538 1.538 0 0 1 3.538 2ZM2 12h20" stroke="currentColor"/>
    <path d="M12 17a.385.385 0 0 1 0-.77M12 17a.385.385 0 0 0 0-.77M12 7a.385.385 0 0 1 0-.77M12 7a.385.385 0 0 0 0-.77" stroke="currentColor" class="stroke-accent"/>
  </g>
</svg>
