<svg viewBox="0 0 24 24" xmlns="http://www.w3.org/2000/svg">
  <g fill="none" fill-rule="evenodd">
    <path d="M11.428 22c-.429 0-.845-.134-1.202-.388a2.18 2.18 0 0 1-.78-1.015l-.5-1.323-1.567-.923-1.37.214a2.07 2.07 0 0 1-1.236-.2 2.165 2.165 0 0 1-.903-.869l-.552-.995a2.254 2.254 0 0 1-.286-1.257c.032-.44.188-.862.461-1.21l.845-1.108v-1.851l-.87-1.11a2.233 2.233 0 0 1-.176-2.472l.546-.99c.214-.38.526-.68.91-.868.376-.194.805-.26 1.221-.2l1.391.22 1.592-.929.5-1.323c.156-.414.423-.762.78-1.015.358-.254.767-.381 1.196-.388h1.137c.436 0 .845.134 1.203.388.357.253.624.601.78 1.015l.5 1.323 1.566.923 1.371-.214a2.07 2.07 0 0 1 1.235.2c.383.194.695.495.903.869l.553.995c.214.375.312.809.286 1.257a2.236 2.236 0 0 1-.455 1.21l-.845 1.109v1.85l.87 1.11c.274.354.43.768.462 1.21.033.447-.071.881-.292 1.262l-.546.982c-.215.381-.527.682-.903.87-.377.193-.806.26-1.222.2l-1.384-.22-1.567.921-.5 1.323a2.172 2.172 0 0 1-.78 1.016 2.038 2.038 0 0 1-1.202.388h-1.163l-.007.013Zm-3.9-5.212c.13 0 .26.033.371.1l2.015 1.196c.15.087.26.22.325.388l.591 1.577c.046.127.13.227.234.307.11.074.234.114.358.114h1.156c.13 0 .254-.04.358-.114a.607.607 0 0 0 .234-.307l.598-1.577c.058-.16.175-.301.325-.388l2.014-1.196a.723.723 0 0 1 .481-.093l1.631.253c.11.014.24 0 .351-.06a.69.69 0 0 0 .273-.26l.552-.99a.683.683 0 0 0 .092-.387.645.645 0 0 0-.137-.36l-1.033-1.317a.793.793 0 0 1-.163-.481v-2.386a.81.81 0 0 1 .156-.474l1.008-1.323a.693.693 0 0 0 .142-.368.676.676 0 0 0-.084-.374l-.559-1.002a.601.601 0 0 0-.273-.254.63.63 0 0 0-.364-.06l-1.618.253a.709.709 0 0 1-.48-.093l-2.015-1.196a.755.755 0 0 1-.325-.388l-.598-1.577a.679.679 0 0 0-.234-.307.632.632 0 0 0-.358-.114h-1.13c-.13 0-.254.04-.358.114a.645.645 0 0 0-.234.307l-.591 1.577a.755.755 0 0 1-.325.388L7.867 7.112a.748.748 0 0 1-.481.093l-1.631-.253a.588.588 0 0 0-.351.06.65.65 0 0 0-.273.26l-.552.99a.684.684 0 0 0-.091.387c.006.133.058.26.136.36l1.033 1.317a.793.793 0 0 1 .163.481v2.386a.826.826 0 0 1-.156.474L4.657 14.99a.694.694 0 0 0-.143.368c-.007.133.019.26.084.374l.559 1.002a.621.621 0 0 0 .63.314l1.618-.253c.04 0 .078-.007.11-.007h.014Z" stroke="#000" stroke-width="0.502519229" fill="currentColor" fill-rule="nonzero"/>
    <path d="M9.232 12.003c0 .562.163 1.11.468 1.577a2.82 2.82 0 0 0 1.241 1.05c.507.213 1.06.273 1.599.16a2.793 2.793 0 0 0 1.417-.775c.383-.395.65-.902.753-1.457a2.961 2.961 0 0 0-.156-1.644 2.822 2.822 0 0 0-1.02-1.276 2.695 2.695 0 0 0-3.49.354 2.884 2.884 0 0 0-.812 2.011Z" stroke="currentColor" class="stroke-accent" stroke-width="2.30153807" stroke-linecap="round" stroke-linejoin="round"/>
  </g>
</svg>
