<svg viewBox="0 0 24 24" xmlns="http://www.w3.org/2000/svg">
  <g stroke-width="2.56675546" fill="none" fill-rule="evenodd" stroke-linecap="round" stroke-linejoin="round">
    <path d="M19.755 3.176a1.034 1.034 0 0 0-.816-.149v3.525c0 .86-.713 1.558-1.594 1.558h-.87c-.88 0-1.595-.697-1.595-1.558V3.139a1.04 1.04 0 0 0-.863.046 5.012 5.012 0 0 0-1.815 2.093 4.88 4.88 0 0 0-.406 2.716 4.928 4.928 0 0 0 1.127 2.514 5.096 5.096 0 0 0 2.147 1.49v8.177c0 1.01.84 1.829 1.874 1.825 1.025-.004 1.855-.814 1.86-1.815l.046-8.26a5.102 5.102 0 0 0 2.018-1.478 4.939 4.939 0 0 0 1.09-2.502 4.895 4.895 0 0 0-.411-2.69 5.026 5.026 0 0 0-1.792-2.08Z" stroke="currentColor"/>
    <path d="M3.813 13.403h4.783a.79.79 0 0 1 .552.224.755.755 0 0 1 .229.54v4.55c0 .826-.336 1.62-.934 2.203a3.226 3.226 0 0 1-2.255.913 3.226 3.226 0 0 1-2.254-.913A3.081 3.081 0 0 1 3 18.717v-4.55a.75.75 0 0 1 .24-.552.783.783 0 0 1 .573-.212ZM6.189 13.341V8.342M6.966 8.331H5.411L3.855 6.81l.778-3.801h3.111l.778 3.801z" stroke="currentColor" class="stroke-accent"/>
  </g>
</svg>
