<svg viewBox="0 0 24 24" xmlns="http://www.w3.org/2000/svg">
  <g stroke-width="2.54372471" fill="none" fill-rule="evenodd" stroke-linecap="round" stroke-linejoin="round">
    <path stroke="currentColor" d="M3 6.615h19M5.375 6.615h14.25v13.846c0 .409-.167.8-.464 1.088-.297.289-.7.451-1.12.451H6.959c-.42 0-.822-.162-1.12-.45a1.517 1.517 0 0 1-.463-1.089V6.615ZM8.542 6.615v-.769c0-1.02.417-1.998 1.16-2.72A4.018 4.018 0 0 1 12.5 2c1.05 0 2.057.405 2.799 1.127.742.72 1.16 1.7 1.16 2.72v.768"/>
    <path stroke="currentColor" class="stroke-accent" d="M10.125 11.233v6.156M14.875 11.233v6.156"/>
  </g>
</svg>
