<svg viewBox="0 0 88 100" xmlns="http://www.w3.org/2000/svg">
  <g fill="#CED0DA" fill-rule="nonzero">
    <path d="m28.14 14.66 6.177 11.81H64.29c10.101 0 15.027-9.967 15.027-9.967L88 0H31.896c-2.922-.084-8.265 6.03-3.757 14.659Z"/>
    <path d="M44.625 62.903 20.2 14.941C15.543 5.857 21.343 1.613 24.774 0h-3.431C15.869 0 10.314 2.801 8.109 7.216 7.945 7.556 1.9 19.27 1.9 19.27c-3.84 7.555-1.307 14.6 2.696 22.41L34.414 100s9.23-18.166 10.538-20.713c2.614-5.178 2.777-10.272-.327-16.384Z"/>
    <path d="M67.467 32.353H35.2l12.503 23.53c4.84-.567 9.277-3.72 11.536-8.005 0 .08 8.228-15.525 8.228-15.525Z"/>
  </g>
</svg>
