<svg viewBox="0 0 542 100" fill="none" xmlns="http://www.w3.org/2000/svg">
  <path d="M115.556 0v57.64h12.019V34.38h19.89V24.193h-19.89V10.951h25.815V0h-37.834ZM190.123 57.64h-10.326l-.508-4.33c-2.116 2.887-5.755 5.094-11.511 5.094-9.395 0-14.304-6.791-14.304-17.487v-23.09h11.511v22.41c0 4.33 2.201 7.301 6.094 7.301 3.724 0 6.01-2.292 7.618-4.669V17.827h11.511V57.64h-.085ZM233.035 34.805v22.92h-11.511V35.484c0-4.414-2.454-7.47-6.517-7.47-3.64 0-6.01 2.292-7.533 4.668v25.043h-11.511V17.997h10.326l.508 4.414c1.947-2.886 5.755-5.178 11.257-5.178 9.734-.085 14.981 6.79 14.981 17.572ZM350.092 28.608h-.931c-4.655 0-7.702 2.377-9.902 5.263v23.854h-11.511V17.996h10.241l.677 5.264c1.947-3.226 5.84-6.028 11.426-6.028v11.376ZM413.827 0l-28.608 39.559L356.526 0h-.339v57.64h11.934V33.362l16.759 25.042h.677l16.674-25.042V57.64h11.934V0h-.338ZM540.871 21.392l-4.317 8.15c-2.285-1.783-5.501-3.396-9.479-3.396-3.386 0-5.163 1.019-5.163 3.14 0 2.038 1.523 2.802 7.109 4.16 8.38 2.038 12.442 5.773 12.442 11.8 0 7.895-6.601 13.158-17.266 13.158-6.01 0-11.85-1.868-15.151-4.754l4.402-8.234c2.624 2.292 6.432 3.99 10.834 3.99 3.554 0 5.67-1.104 5.67-3.396 0-2.122-1.438-3.226-6.686-4.499-8.718-2.122-12.781-5.263-12.781-11.46 0-7.895 6.179-12.988 16.674-12.988 5.417.085 10.665 1.698 13.712 4.33Z" fill="#CED0DA"/>
  <path fill-rule="evenodd" clip-rule="evenodd" d="M268.415 57.64h10.326V0h-11.596v21.477c-1.862-2.207-5.247-4.414-10.918-4.414-10.58 0-17.69 8.828-17.69 20.713 0 11.884 7.11 20.628 17.69 20.628 5.755 0 9.564-2.377 11.596-5.178l.592 4.414Zm-9.394-9.168c-5.248 0-8.888-4.075-8.888-10.611 0-6.622 3.64-10.696 8.888-10.611 3.978 0 6.432 2.207 8.125 5.008v11.29c-1.693 2.802-4.147 4.924-8.125 4.924ZM322.416 40.917v-3.65c0-10.866-6.01-20.12-18.452-20.204-11.849 0-19.975 8.913-19.975 20.798 0 11.884 7.956 20.543 20.398 20.543 7.449 0 12.696-2.377 16.844-7.13l-7.872-6.452c-1.777 2.377-4.824 4.074-8.718 4.074-5.67 0-8.802-2.886-9.056-7.98h26.831ZM311.074 33.7h-15.489c.254-4.584 3.301-7.895 7.956-7.81 4.74 0 7.364 3.31 7.533 7.81ZM449.29 17.912l-.592 4.499c-2.032-2.971-5.841-5.263-11.596-5.348-10.58 0-17.69 8.828-17.69 20.713 0 11.884 7.11 20.628 17.69 20.628 5.755 0 9.564-2.377 11.596-5.178l.592 4.414h10.326V17.912H449.29Zm-9.31 30.56c-5.248 0-8.887-4.075-8.887-10.611 0-6.622 3.639-10.696 8.887-10.611 3.978 0 6.433 2.207 8.125 5.008v11.29c-1.692 2.802-4.147 4.924-8.125 4.924ZM488.31 58.489c10.58 0 17.689-8.744 17.689-20.628 0-11.97-7.109-20.713-17.689-20.713-5.756 0-9.565 2.377-11.681 5.263l-.508-4.5h-10.326v57.81h11.511V54.075c1.947 2.207 5.333 4.414 11.004 4.414Zm-11.003-15.11V32.172c1.693-2.801 4.232-5.008 8.21-5.093 5.248 0 8.887 4.074 8.887 10.696 0 6.536-3.639 10.611-8.887 10.611-3.978 0-6.517-2.122-8.21-5.008Z" fill="#CED0DA"/>
  <path d="m27.784 14.94 6.263 11.97h30.386c10.242 0 15.235-10.102 15.235-10.102L88.471.085H31.593C28.63 0 23.213 6.197 27.784 14.94Z" fill="#CED0DA"/>
  <path d="M46.235 62.903 20.928 14.941C16.103 5.857 22.113 1.613 25.668 0h-3.555C16.442 0 10.687 2.801 8.4 7.216c-.17.34-6.432 12.054-6.432 12.054C-2.01 26.825.614 33.87 4.762 41.68L35.655 100s9.565-18.166 10.919-20.713c2.708-5.178 2.878-10.272-.339-16.384Z" fill="#CED0DA"/>
  <path d="M71.12 32.937H37.262l13.12 24.703c5.078-.594 9.733-3.905 12.103-8.404 0 .085 8.633-16.299 8.633-16.299Z" fill="#CED0DA"/>
</svg>
