<svg viewBox="0 0 90 90" xmlns="http://www.w3.org/2000/svg">
  <g fill="none" fill-rule="evenodd">
    <path class="accent-fill-light" fill="#CED0DA" d="M3.026 67.202h13.111l.23 10.033 10.007.074-.088-10.107h13.112l.073 10.037 11.036.12.048-10.157h13.049l.07 10.268 10.059-.05-.043-10.218h13.048v20.172H3.026z"/>
    <g class="accent-fill-dark" fill="#7F8FA4">
      <path d="M85.93 85.93H4.07V69.079h9.944v8.032c0 1.123.911 2.035 2.035 2.035h10.855a2.035 2.035 0 0 0 2.035-2.035v-8.032h8.599v8.032c0 1.123.911 2.035 2.035 2.035h10.854a2.035 2.035 0 0 0 2.035-2.035v-8.032h8.599v8.032c0 1.123.911 2.035 2.035 2.035H73.95a2.036 2.036 0 0 0 2.036-2.035v-8.032h9.944v16.85ZM18.084 75.075h6.784V59.012h-6.784v16.063ZM28.94 65.008h8.599v-5.996h-8.6v5.996Zm12.669 10.067h6.784V59.012h-6.784v16.063Zm10.854-10.067h8.599v-5.996h-8.599v5.996Zm12.67 10.067h6.783V59.012h-6.784v16.063Zm22.833-10.067H75.986V29.89a2.036 2.036 0 0 0-4.07 0v25.051H18.083v-25.05a2.035 2.035 0 1 0-4.07 0v35.117H2.035A2.035 2.035 0 0 0 0 67.044v20.92C0 89.09.91 90 2.035 90h85.93A2.035 2.035 0 0 0 90 87.965V67.044a2.035 2.035 0 0 0-2.035-2.036Z"/>
      <path d="M39.918 44.509h10.163V31.926H39.918v12.583Zm-2.035-16.654a2.035 2.035 0 0 0-2.035 2.035v16.654c0 1.124.911 2.035 2.035 2.035h14.234a2.035 2.035 0 0 0 2.035-2.035V29.89a2.035 2.035 0 0 0-2.035-2.035H37.883ZM45 4.306 86.87 25.04a2.036 2.036 0 0 0 1.806-3.648L45.903.212a2.036 2.036 0 0 0-1.806 0L1.324 21.391a2.035 2.035 0 0 0 1.807 3.648L45 4.306Z"/>
    </g>
  </g>
</svg>
