<svg viewBox="0 0 90 90" xmlns="http://www.w3.org/2000/svg">
  <g fill="none" fill-rule="evenodd">
    <path class="accent-fill-light" fill="#CED0DA" fill-rule="nonzero" d="M3.026 67.202h83.712v20.172H3.026z"/>
    <g class="accent-fill-dark" fill="#7F8FA4">
      <path d="M85.93 85.93H4.07V69.079h15.177v5.997H16.05a2.035 2.035 0 1 0 0 4.07h10.467a2.035 2.035 0 1 0 0-4.07H23.32v-5.997h19.646v5.997h-3.198a2.035 2.035 0 1 0 0 4.07h10.467a2.035 2.035 0 0 0 0-4.07h-3.199v-5.997h19.647v5.997h-3.199a2.035 2.035 0 1 0 0 4.07H73.95a2.035 2.035 0 0 0 0-4.07h-3.198v-5.997H85.93v16.85ZM47.035 65.009h19.646v-5.997H47.035v5.997Zm-23.716 0h19.646v-5.997H23.32v5.997Zm64.646 0H70.752v-5.997h3.198a2.035 2.035 0 0 0 2.036-2.035V29.89a2.035 2.035 0 0 0-4.07 0v25.052H18.084V29.89a2.035 2.035 0 1 0-4.07 0v27.087c0 1.124.91 2.035 2.035 2.035h3.198v5.997H2.036A2.035 2.035 0 0 0 0 67.044v20.921C0 89.09.912 90 2.036 90h85.929A2.035 2.035 0 0 0 90 87.965V67.044c0-1.124-.91-2.035-2.035-2.035Z"/>
      <path d="M39.919 44.509h10.162V31.926H39.92v12.583Zm-2.036-16.654a2.035 2.035 0 0 0-2.035 2.035v16.654c0 1.124.912 2.035 2.035 2.035h14.234a2.035 2.035 0 0 0 2.034-2.035V29.89c0-1.124-.91-2.035-2.034-2.035H37.883ZM45 4.306 86.87 25.04a2.034 2.034 0 1 0 1.806-3.648L45.903.212a2.036 2.036 0 0 0-1.806 0L1.324 21.391a2.035 2.035 0 1 0 1.807 3.648L45 4.306Z"/>
    </g>
  </g>
</svg>
