<svg viewBox="0 0 90 90" xmlns="http://www.w3.org/2000/svg">
  <g fill="none" fill-rule="evenodd">
    <path class="accent-fill-light" fill="#CED0DA" d="M4.034 67.202h12.135v10.086l57.522-.976v-9.11h14.056v20.172H4.034z"/>
    <g class="accent-fill-dark" fill="#7F8FA4">
      <path d="M85.93 85.93H4.07V69.079h9.944v8.032c0 1.123.912 2.035 2.036 2.035h57.9a2.035 2.035 0 0 0 2.036-2.035v-8.032h9.944v16.85ZM18.085 75.075h53.83V59.012h-53.83v16.063Zm69.88-10.067h-11.98V29.89a2.035 2.035 0 1 0-4.07 0v25.051h-53.83v-25.05a2.035 2.035 0 1 0-4.07 0v35.117H2.034A2.035 2.035 0 0 0 0 67.044v20.92C0 89.09.911 90 2.035 90h85.93A2.035 2.035 0 0 0 90 87.965V67.044a2.035 2.035 0 0 0-2.035-2.036Z"/>
      <path d="M39.919 44.509h10.163V31.926H39.919v12.583Zm-2.036-16.654a2.035 2.035 0 0 0-2.035 2.035v16.654c0 1.124.911 2.035 2.035 2.035h14.234a2.035 2.035 0 0 0 2.035-2.035V29.89a2.035 2.035 0 0 0-2.035-2.035H37.883ZM27.462 69.08h4.295a2.035 2.035 0 0 0 0-4.071h-4.295a2.035 2.035 0 1 0 0 4.07ZM42.852 69.08h4.296a2.035 2.035 0 0 0 0-4.071h-4.296a2.035 2.035 0 1 0 0 4.07ZM58.243 69.08h4.296a2.035 2.035 0 0 0 0-4.071h-4.296a2.035 2.035 0 1 0 0 4.07ZM45 4.306 86.87 25.04a2.036 2.036 0 0 0 1.807-3.648L45.902.212a2.036 2.036 0 0 0-1.806 0L1.324 21.391A2.036 2.036 0 0 0 3.13 25.04L45 4.306Z"/>
    </g>
  </g>
</svg>
