<svg viewBox="0 0 23 26" fill="none" xmlns="http://www.w3.org/2000/svg">
  <path d="M0 3.668v8.797a13.759 13.759 0 0 0 8.819 12.842l1.203.462a3.467 3.467 0 0 0 2.489 0l1.203-.462a13.758 13.758 0 0 0 8.818-12.841V3.668a1.717 1.717 0 0 0-1.003-1.574A25.075 25.075 0 0 0 11.266 0C7.736-.032 4.24.681 1.003 2.094A1.718 1.718 0 0 0 0 3.668Z" fill="#A7DDB7"/>
  <path d="M3.467 5.97v6.702a9.491 9.491 0 0 0 6.124 8.766l.822.316c.546.21 1.151.21 1.698 0l.822-.316a9.49 9.49 0 0 0 6.124-8.766V5.97a1.173 1.173 0 0 0-.684-1.075 17.773 17.773 0 0 0-7.107-1.428 17.773 17.773 0 0 0-7.115 1.428 1.174 1.174 0 0 0-.684 1.075Z" stroke="#fff" stroke-opacity="0.3" stroke-width="1.5" stroke-linecap="round" stroke-linejoin="round"/>
  <path d="M12.904 11.725c.962.247 1.807 1.066 1.807 2.249 0 1.716-1.079 2.626-3.354 2.626H8.263c-.117 0-.195-.078-.195-.195v-8.71c0-.117.078-.195.195-.195h3.094c1.807 0 2.704 1.066 2.704 2.3 0 .95-.494 1.665-1.157 1.925Zm-.52-1.703c0-.69-.48-.95-1.196-.95H9.85v2.016h1.34c.727 0 1.195-.338 1.195-1.066Zm-.975 5.005c.95 0 1.521-.39 1.521-1.248 0-.82-.572-1.222-1.52-1.222H9.85v2.47h1.56Z" fill="#fff"/>
</svg>
