<svg viewBox="0 0 23 26" fill="none" xmlns="http://www.w3.org/2000/svg">
  <path d="M0 3.668v8.797a13.759 13.759 0 0 0 8.819 12.842l1.203.462a3.467 3.467 0 0 0 2.489 0l1.203-.462a13.758 13.758 0 0 0 8.818-12.841V3.668a1.717 1.717 0 0 0-1.003-1.574A25.075 25.075 0 0 0 11.266 0C7.736-.032 4.24.681 1.003 2.094A1.718 1.718 0 0 0 0 3.668Z" fill="#FFCC69"/>
  <path d="M3.467 5.97v6.702a9.491 9.491 0 0 0 6.124 8.766l.822.316c.546.21 1.151.21 1.698 0l.822-.316a9.49 9.49 0 0 0 6.124-8.766V5.97a1.173 1.173 0 0 0-.684-1.075 17.773 17.773 0 0 0-7.107-1.428 17.773 17.773 0 0 0-7.115 1.428 1.174 1.174 0 0 0-.684 1.075Z" stroke="#fff" stroke-opacity="0.3" stroke-width="1.5" stroke-linecap="round" stroke-linejoin="round"/>
  <path d="m14.262 14.26.858.923c.091.09.091.182 0 .273a4.446 4.446 0 0 1-3.171 1.313c-2.6 0-4.68-2.067-4.68-4.68a4.655 4.655 0 0 1 4.68-4.693c1.26 0 2.366.507 3.171 1.313.091.09.091.182 0 .273l-.857.923c-.079.09-.182.09-.274.013a3.02 3.02 0 0 0-2.054-.78c-1.585 0-2.833 1.26-2.833 2.95 0 1.678 1.248 2.939 2.833 2.939a3.02 3.02 0 0 0 2.054-.78c.091-.078.195-.078.273.013Z" fill="#fff"/>
</svg>
