<svg viewBox="0 0 23 26" fill="none" xmlns="http://www.w3.org/2000/svg">
  <path d="M0 3.668v8.797a13.759 13.759 0 0 0 8.819 12.842l1.203.462a3.467 3.467 0 0 0 2.489 0l1.203-.462a13.758 13.758 0 0 0 8.818-12.841V3.668a1.717 1.717 0 0 0-1.003-1.574A25.075 25.075 0 0 0 11.266 0C7.736-.032 4.24.681 1.003 2.094A1.718 1.718 0 0 0 0 3.668Z" fill="#FF7D1F"/>
  <path d="M3.467 5.97v6.702a9.491 9.491 0 0 0 6.124 8.766l.822.316c.546.21 1.151.21 1.698 0l.822-.316a9.49 9.49 0 0 0 6.124-8.766V5.97a1.173 1.173 0 0 0-.684-1.075 17.773 17.773 0 0 0-7.107-1.428 17.773 17.773 0 0 0-7.115 1.428 1.174 1.174 0 0 0-.684 1.075Z" stroke="#fff" stroke-opacity="0.3" stroke-width="1.5" stroke-linecap="round" stroke-linejoin="round"/>
  <path d="M10.354 7.5c3.12 0 4.771 2.015 4.771 4.55 0 2.535-1.65 4.55-4.77 4.55H7.792c-.117 0-.195-.078-.195-.195v-8.71c0-.117.078-.195.195-.195h2.561Zm0 7.527c1.976 0 2.964-1.105 2.964-2.977 0-1.872-.988-2.977-2.964-2.977H9.38v5.954h.975Z" fill="#fff"/>
</svg>
